PathFileType	4	(X/Y/Z)	/Users/mathieubourgeois/Desktop/Analyse/Traitement/Sujet_07/Data/Transformed_Sujet_07_velo_60.trc
DataRate	CameraRate	NumFrames	NumMarkers	Units	OrigDataRate	OrigDataStartFrame	OrigNumFrames
120.000000	120.000000	4	36	mm	120.000000	1401	1868
Frame#	Time	RFHD			LFHD			RBHD			LBHD			C7			CLAV			RSHO			LSHO			STRN			T10			RBWT			LBWT			RFWT			LFWT			RKNI			LKNI			RKNE			LKNE			LANI			RANI			LANE			RANE			LTOE			RTOE			LHEE			RHEE			RHUM			LHUM			RRAD			LRAD			RWRA			RWRB			LWRA			LWRB			LCAR			RCAR			
		X1	Y1	Z1	X2	Y2	Z2	X3	Y3	Z3	X4	Y4	Z4	X5	Y5	Z5	X6	Y6	Z6	X7	Y7	Z7	X8	Y8	Z8	X9	Y9	Z9	X10	Y10	Z10	X11	Y11	Z11	X12	Y12	Z12	X13	Y13	Z13	X14	Y14	Z14	X15	Y15	Z15	X16	Y16	Z16	X17	Y17	Z17	X18	Y18	Z18	X19	Y19	Z19	X20	Y20	Z20	X21	Y21	Z21	X22	Y22	Z22	X23	Y23	Z23	X24	Y24	Z24	X25	Y25	Z25	X26	Y26	Z26	X27	Y27	Z27	X28	Y28	Z28	X29	Y29	Z29	X30	Y30	Z30	X31	Y31	Z31	X32	Y32	Z32	X33	Y33	Z33	X34	Y34	Z34	X35	Y35	Z35	X36	Y36	Z36	

1402	11.675	252.2446899414062	1364.54638671875	137.3119812011718	248.5910186767578	1345.27587890625	6.689643859863229	201.0442352294922	1507.722045898438	135.0820312499999	193.6084594726562	1502.703735351562	-10.37167263031013	42.54115676879882	1501.171264648438	59.19871520996085	14.98172378540038	1369.14990234375	74.72969055175773	61.1992263793945	1432.389038085938	216.3873748779296	77.93972778320314	1454.208618164062	-70.21941375732429	-136.5637359619141	1293.973876953125	59.06130981445303	-208.3305969238281	1523.709594726562	50.61197662353504	-444.9431762695312	1294.611328125	124.5915908813475	-451.6022644042969	1294.64794921875	10.40096569061266	-284.263671875	1212.477905273438	162.6027221679686	-293.0460815429688	1218.176879882812	-48.58920288085948	-53.34846496582033	772.1478881835938	124.0882110595703	-105.2339477539062	785.8916625976562	-43.89319992065436	-77.9413986206055	831.37060546875	225.5377807617187	-84.87445068359374	828.9022827148438	-150.2898254394532	-364.0897827148438	510.0843505859375	-48.84860229492195	-94.88472747802736	389.4837341308594	131.0318450927734	-385.32470703125	510.0703125	-136.9444885253907	-122.8637237548828	378.9097900390625	217.8295745849609	-251.6631011962891	348.2620239257812	-106.3714447021485	79.69709014892575	297.1364135742188	196.4733581542968	-441.3110046386719	533.3740844726562	-97.47690582275399	-177.2834625244141	358.7830810546875	173.3338928222656	75.09408569335935	1097.90283203125	247.5450134277343	91.09097290039064	1115.025756835938	-129.0657653808594	121.7476196289062	1124.283569335938	290.2145080566406	152.2960510253907	1133.734619140625	-150.6029968261719	320.3110961914062	936.2494506835938	253.3965301513672	281.5396423339843	900.4714965820312	306.9669189453125	318.0779113769531	929.234375	-101.3003616333008	277.3542785644531	887.434814453125	-152.5056762695313	371.5068359375	916.1464233398438	-192.4857788085938	370.8981018066406	926.0062866210938	341.76416015625	
1403	11.68333333333333	252.5859069824218	1364.689453125	136.6472625732421	248.8491363525391	1345.399658203125	5.987502098083444	201.4208068847656	1507.922241210938	134.3211212158203	193.9309997558594	1502.818725585938	-11.01824951171882	42.85511398315429	1501.387817382812	58.53161239624015	14.82398223876952	1369.166137695312	74.44063568115226	61.75477218627927	1432.498901367188	215.8104858398437	78.1423797607422	1454.205688476562	-71.07563781738288	-136.4841003417969	1294.403930664062	58.65859985351553	-208.0619659423828	1523.85791015625	50.45223617553699	-444.26416015625	1294.533081054688	124.8610763549803	-451.0556335449219	1294.78466796875	10.63535881042467	-283.6716003417969	1212.2001953125	162.5623168945311	-292.4832458496094	1218.198364257812	-48.54863739013683	-58.04200363159181	764.8822021484375	123.8620147705078	-99.55722808837891	791.9934692382812	-43.55552291870124	-82.9612731933594	824.8270874023438	225.5593566894531	-79.26834106445311	834.810302734375	-149.9527130126954	-361.504638671875	519.380615234375	-48.65186691284187	-95.92441558837892	382.1553344726562	131.8511199951172	-382.6649780273438	519.4806518554688	-136.7809600830079	-123.6723556518555	371.3857116699219	218.7342071533203	-249.6987457275391	357.8927612304688	-106.6139068603516	78.08988952636716	287.5330810546875	195.9373931884765	-438.579345703125	543.1559448242188	-97.3771514892579	-178.1583709716797	351.6819152832031	174.2971038818359	75.30242156982419	1097.965698242188	247.3809204101562	91.47036743164064	1115.026123046875	-129.6243896484376	121.9854049682617	1124.346069335938	290.0059204101562	152.799545288086	1133.782470703125	-150.984130859375	320.4288024902343	936.153076171875	253.396728515625	281.6227722167968	900.41455078125	306.9622497558594	318.2888488769531	929.1514892578125	-101.1532211303711	277.5805053710938	887.3840942382812	-152.447509765625	371.6788024902344	916.1821899414062	-192.3808135986328	370.9614868164062	925.9388427734375	341.8114624023438	
1404	11.69166666666667	252.9747009277343	1364.8671875	135.9717864990234	249.1393432617188	1345.523803710938	5.323948860168405	201.8119049072265	1508.129516601562	133.5777435302734	194.2649993896484	1502.97705078125	-11.7972078323365	43.26947021484374	1501.625732421875	57.81587600707999	14.66603660583495	1369.17919921875	74.14551544189445	62.2351264953613	1432.587158203125	215.1398010253905	78.35329437255861	1454.25537109375	-71.8547668457032	-135.9872131347656	1294.621948242188	58.00971984863272	-207.7596588134766	1524.00048828125	50.29821777343738	-443.5527954101562	1294.49609375	125.0453033447264	-450.5277404785156	1294.944702148438	10.78657817840563	-283.2172241210938	1211.912719726562	162.4943389892577	-291.9179992675781	1218.203247070312	-48.4786491394044	-63.77384185791017	758.904052734375	124.1923446655273	-94.12715148925781	798.2430419921875	-43.21976470947272	-88.30271148681643	818.400146484375	225.6338500976562	-73.5460968017578	840.7664794921875	-149.6552124023438	-358.6627807617188	528.4999389648438	-48.47560882568367	-97.37813568115236	374.9906616210938	132.6519775390625	-379.874755859375	528.78759765625	-136.4869079589845	-124.8828887939453	364.0191345214844	219.5554046630859	-247.5609588623047	366.0263061523438	-105.5166702270508	76.01288604736325	278.0438537597656	195.3575744628906	-435.5916748046875	552.7269287109375	-97.31679534912118	-179.4560241699219	344.7916259765625	175.2878723144531	75.54142761230466	1097.996337890625	247.2284240722656	91.88818359375001	1115.0869140625	-130.259750366211	122.2214126586914	1124.368286132812	289.8061828613281	153.2608032226563	1133.832885742188	-151.3370208740235	320.5623168945312	936.062255859375	253.384292602539	281.7239990234374	900.3627319335938	306.9543762207031	318.516845703125	929.100830078125	-101.0169982910156	277.8077697753906	887.3773193359375	-152.388427734375	371.8208618164062	916.200439453125	-192.3063201904297	371.0473937988281	925.8712768554688	341.8295288085938	
1405	11.7	253.3553771972656	1365.05322265625	135.2630615234374	249.4550476074219	1345.651489257812	4.671596050262399	202.2214660644531	1508.316528320312	132.8625183105468	194.5000610351562	1503.69140625	-12.07590103149421	43.61578750610351	1501.897827148438	57.11234664916984	14.50823783874511	1369.189208984375	73.84475708007804	62.80865478515622	1432.654174804688	214.5572814941405	78.61167907714845	1454.36572265625	-72.71107482910163	-135.7199554443359	1294.85302734375	57.52280044555655	-207.4703063964844	1524.12939453125	50.15306854248035	-442.8416442871094	1294.506103515625	125.2322692871092	-449.953857421875	1295.11962890625	10.98030853271471	-282.6359558105469	1211.625	162.542022705078	-291.3183898925781	1218.17041015625	-48.34279251098643	-68.0750198364258	752.4475708007812	124.318862915039	-88.63385009765625	804.5614624023438	-42.84103393554694	-93.66029357910159	812.0956420898438	225.5767669677734	-68.61179351806639	847.573486328125	-149.9149932861329	-355.5354614257812	537.4307861328125	-48.31213378906258	-99.1621551513672	367.9636840820312	133.4791107177734	-376.5639038085938	537.8273315429688	-136.3323974609376	-126.4732437133789	356.8421325683594	220.3529510498046	-244.8018798828125	374.76953125	-105.0830078125001	73.44808197021482	268.5962829589844	194.7925415039062	-432.3113708496094	562.0087890625	-97.27834320068368	-181.1672058105469	338.1490478515625	176.2097930908203	75.74893951416013	1097.99755859375	247.0750579833984	92.25090789794923	1115.190185546875	-130.8359375000001	122.4366989135742	1124.398193359375	289.6485595703124	153.7198181152344	1133.901123046875	-151.7062225341797	320.7099304199218	935.9617309570312	253.379638671875	281.8201904296874	900.3014526367188	306.9529724121094	318.7098999023438	929.0684204101562	-100.8910293579102	277.9943237304688	887.3638305664062	-152.3515319824219	371.9522705078125	916.2025146484375	-192.2574310302734	371.1235046386718	925.7935180664062	341.85791015625	
